<svg width="48" height="48" viewBox="0 0 48 48" fill="none" xmlns="http://www.w3.org/2000/svg">
<circle cx="24" cy="24" r="23" fill="white" stroke="#171717" stroke-width="2"/>
<mask id="mask0_1584_4874" style="mask-type:alpha" maskUnits="userSpaceOnUse" x="8" y="8" width="32" height="32">
<rect x="8" y="8" width="32" height="32" fill="#D9D9D9"/>
</mask>
<g mask="url(#mask0_1584_4874)">
<path d="M24 15.9998C23.2667 15.9998 22.6389 15.7387 22.1167 15.2165C21.5944 14.6943 21.3333 14.0665 21.3333 13.3332C21.3333 12.5998 21.5944 11.9721 22.1167 11.4498C22.6389 10.9276 23.2667 10.6665 24 10.6665C24.7333 10.6665 25.3611 10.9276 25.8833 11.4498C26.4056 11.9721 26.6667 12.5998 26.6667 13.3332C26.6667 14.0665 26.4056 14.6943 25.8833 15.2165C25.3611 15.7387 24.7333 15.9998 24 15.9998ZM20 37.3332V19.9998C18.6667 19.8887 17.3111 19.7221 15.9333 19.4998C14.5556 19.2776 13.2444 18.9998 12 18.6665L12.6667 15.9998C14.4 16.4665 16.2444 16.8054 18.2 17.0165C20.1556 17.2276 22.0889 17.3332 24 17.3332C25.9111 17.3332 27.8444 17.2276 29.8 17.0165C31.7556 16.8054 33.6 16.4665 35.3333 15.9998L36 18.6665C34.7556 18.9998 33.4444 19.2776 32.0667 19.4998C30.6889 19.7221 29.3333 19.8887 28 19.9998V37.3332H25.3333V29.3332H22.6667V37.3332H20Z" fill="#1C1B1F"/>
</g>
</svg>
