<svg width="34" height="34" viewBox="0 0 34 34" fill="none" xmlns="http://www.w3.org/2000/svg">
<path d="M6.74967 25.5C8.16634 24.4167 9.74968 23.5625 11.4997 22.9375C13.2497 22.3125 15.083 22 16.9997 22C18.9163 22 20.7497 22.3125 22.4997 22.9375C24.2497 23.5625 25.833 24.4167 27.2497 25.5C28.2219 24.3611 28.9788 23.0695 29.5205 21.625C30.0622 20.1806 30.333 18.6389 30.333 17C30.333 13.3056 29.0344 10.1597 26.4372 7.56251C23.84 4.96529 20.6941 3.66668 16.9997 3.66668C13.3052 3.66668 10.1594 4.96529 7.56217 7.56251C4.96495 10.1597 3.66634 13.3056 3.66634 17C3.66634 18.6389 3.93717 20.1806 4.47884 21.625C5.02051 23.0695 5.77745 24.3611 6.74967 25.5ZM16.9997 18.6667C15.3608 18.6667 13.9788 18.1042 12.8538 16.9792C11.7288 15.8542 11.1663 14.4722 11.1663 12.8333C11.1663 11.1945 11.7288 9.81251 12.8538 8.68751C13.9788 7.56251 15.3608 7.00001 16.9997 7.00001C18.6386 7.00001 20.0205 7.56251 21.1455 8.68751C22.2705 9.81251 22.833 11.1945 22.833 12.8333C22.833 14.4722 22.2705 15.8542 21.1455 16.9792C20.0205 18.1042 18.6386 18.6667 16.9997 18.6667ZM16.9997 33.6667C14.6941 33.6667 12.5275 33.2292 10.4997 32.3542C8.4719 31.4792 6.70801 30.2917 5.20801 28.7917C3.70801 27.2917 2.52051 25.5278 1.64551 23.5C0.770508 21.4722 0.333008 19.3056 0.333008 17C0.333008 14.6945 0.770508 12.5278 1.64551 10.5C2.52051 8.47223 3.70801 6.70834 5.20801 5.20834C6.70801 3.70834 8.4719 2.52084 10.4997 1.64584C12.5275 0.770844 14.6941 0.333344 16.9997 0.333344C19.3052 0.333344 21.4719 0.770844 23.4997 1.64584C25.5275 2.52084 27.2913 3.70834 28.7913 5.20834C30.2913 6.70834 31.4788 8.47223 32.3538 10.5C33.2288 12.5278 33.6663 14.6945 33.6663 17C33.6663 19.3056 33.2288 21.4722 32.3538 23.5C31.4788 25.5278 30.2913 27.2917 28.7913 28.7917C27.2913 30.2917 25.5275 31.4792 23.4997 32.3542C21.4719 33.2292 19.3052 33.6667 16.9997 33.6667ZM16.9997 30.3333C18.4719 30.3333 19.8608 30.1181 21.1663 29.6875C22.4719 29.257 23.6663 28.6389 24.7497 27.8333C23.6663 27.0278 22.4719 26.4097 21.1663 25.9792C19.8608 25.5486 18.4719 25.3333 16.9997 25.3333C15.5275 25.3333 14.1386 25.5486 12.833 25.9792C11.5275 26.4097 10.333 27.0278 9.24967 27.8333C10.333 28.6389 11.5275 29.257 12.833 29.6875C14.1386 30.1181 15.5275 30.3333 16.9997 30.3333ZM16.9997 15.3333C17.7219 15.3333 18.3191 15.0972 18.7913 14.625C19.2636 14.1528 19.4997 13.5556 19.4997 12.8333C19.4997 12.1111 19.2636 11.5139 18.7913 11.0417C18.3191 10.5695 17.7219 10.3333 16.9997 10.3333C16.2775 10.3333 15.6802 10.5695 15.208 11.0417C14.7358 11.5139 14.4997 12.1111 14.4997 12.8333C14.4997 13.5556 14.7358 14.1528 15.208 14.625C15.6802 15.0972 16.2775 15.3333 16.9997 15.3333Z" fill="#474747"/>
</svg>
