<svg width="22" height="20" viewBox="0 0 22 20" fill="none" xmlns="http://www.w3.org/2000/svg">
<path d="M11.0016 20C9.75156 20 8.58073 19.7625 7.48906 19.2875C6.3974 18.8125 5.4474 18.1708 4.63906 17.3625C3.83073 16.5541 3.18906 15.6041 2.71406 14.5125C2.23906 13.4208 2.00156 12.25 2.00156 11C2.00156 9.74998 2.23906 8.57914 2.71406 7.48748C3.18906 6.39581 3.83073 5.44581 4.63906 4.63748C5.4474 3.82914 6.3974 3.18748 7.48906 2.71248C8.58073 2.23748 9.75156 1.99998 11.0016 1.99998C12.2516 1.99998 13.4224 2.23748 14.5141 2.71248C15.6057 3.18748 16.5557 3.82914 17.3641 4.63748C18.1724 5.44581 18.8141 6.39581 19.2891 7.48748C19.7641 8.57914 20.0016 9.74998 20.0016 11C20.0016 12.25 19.7641 13.4208 19.2891 14.5125C18.8141 15.6041 18.1724 16.5541 17.3641 17.3625C16.5557 18.1708 15.6057 18.8125 14.5141 19.2875C13.4224 19.7625 12.2516 20 11.0016 20ZM13.8016 15.2L15.2016 13.8L12.0016 10.6V5.99998H10.0016V11.4L13.8016 15.2ZM4.60156 0.349976L6.00156 1.74998L1.75156 5.99998L0.351562 4.59998L4.60156 0.349976ZM17.4016 0.349976L21.6516 4.59998L20.2516 5.99998L16.0016 1.74998L17.4016 0.349976ZM11.0016 18C12.9516 18 14.6057 17.3208 15.9641 15.9625C17.3224 14.6041 18.0016 12.95 18.0016 11C18.0016 9.04998 17.3224 7.39581 15.9641 6.03748C14.6057 4.67914 12.9516 3.99998 11.0016 3.99998C9.05156 3.99998 7.3974 4.67914 6.03906 6.03748C4.68073 7.39581 4.00156 9.04998 4.00156 11C4.00156 12.95 4.68073 14.6041 6.03906 15.9625C7.3974 17.3208 9.05156 18 11.0016 18Z" fill="#474747"/>
</svg>
