<svg width="26" height="48" viewBox="0 0 26 48" fill="none" xmlns="http://www.w3.org/2000/svg">
<path d="M10.3999 48V42.2667C8.04431 41.7333 6.01098 40.7111 4.29987 39.2C2.58876 37.6889 1.3332 35.5556 0.533203 32.8L5.46654 30.8C6.1332 32.9333 7.12209 34.5556 8.4332 35.6667C9.74431 36.7778 11.4665 37.3333 13.5999 37.3333C15.4221 37.3333 16.9665 36.9222 18.2332 36.1C19.4999 35.2778 20.1332 34 20.1332 32.2667C20.1332 30.7111 19.6443 29.4778 18.6665 28.5667C17.6888 27.6556 15.4221 26.6222 11.8665 25.4667C8.04431 24.2667 5.42209 22.8333 3.99987 21.1667C2.57765 19.5 1.86654 17.4667 1.86654 15.0667C1.86654 12.1778 2.79987 9.93333 4.66654 8.33333C6.5332 6.73333 8.44431 5.82222 10.3999 5.6V0H15.7332V5.6C17.9554 5.95556 19.7888 6.76667 21.2332 8.03333C22.6776 9.3 23.7332 10.8444 24.3999 12.6667L19.4665 14.8C18.9332 13.3778 18.1776 12.3111 17.1999 11.6C16.2221 10.8889 14.8888 10.5333 13.1999 10.5333C11.2443 10.5333 9.75543 10.9667 8.7332 11.8333C7.71098 12.7 7.19987 13.7778 7.19987 15.0667C7.19987 16.5333 7.86654 17.6889 9.19987 18.5333C10.5332 19.3778 12.8443 20.2667 16.1332 21.2C19.1999 22.0889 21.5221 23.5 23.0999 25.4333C24.6776 27.3667 25.4665 29.6 25.4665 32.1333C25.4665 35.2889 24.5332 37.6889 22.6665 39.3333C20.7999 40.9778 18.4888 42 15.7332 42.4V48H10.3999Z" fill="#474747"/>
</svg>
