<svg width="60" height="82" viewBox="0 0 60 82" fill="none" xmlns="http://www.w3.org/2000/svg">
<path d="M4.69996 55.8498C3.35552 53.5276 2.34718 51.1443 1.67496 48.6998C1.00274 46.2554 0.666626 43.7498 0.666626 41.1832C0.666626 32.9943 3.50829 26.0276 9.19163 20.2832C14.875 14.5387 21.8111 11.6665 30 11.6665H30.6416L24.775 5.79984L29.9083 0.666504L44.575 15.3332L29.9083 29.9998L24.775 24.8665L30.6416 18.9998H30C23.8888 18.9998 18.6944 21.154 14.4166 25.4623C10.1388 29.7707 7.99996 35.011 7.99996 41.1832C7.99996 42.7721 8.18329 44.3304 8.54996 45.8582C8.91663 47.386 9.46663 48.8832 10.2 50.3498L4.69996 55.8498ZM30.0916 81.3332L15.425 66.6665L30.0916 51.9998L35.225 57.1332L29.3583 62.9998H30C36.1111 62.9998 41.3055 60.8457 45.5833 56.5373C49.8611 52.229 52 46.9887 52 40.8165C52 39.2276 51.8166 37.6693 51.45 36.1415C51.0833 34.6137 50.5333 33.1165 49.8 31.6498L55.3 26.1498C56.6444 28.4721 57.6527 30.8554 58.325 33.2998C58.9972 35.7443 59.3333 38.2498 59.3333 40.8165C59.3333 49.0054 56.4916 55.9721 50.8083 61.7165C45.125 67.461 38.1889 70.3332 30 70.3332H29.3583L35.225 76.1998L30.0916 81.3332Z" fill="#067CB7"/>
</svg>
