<svg width="54" height="57" viewBox="0 0 54 57" fill="none" xmlns="http://www.w3.org/2000/svg">
<path d="M5.33333 16.332H42.6667V10.9987H5.33333V16.332ZM5.33333 53.6654C3.86667 53.6654 2.61111 53.1431 1.56667 52.0987C0.522222 51.0543 0 49.7987 0 48.332V10.9987C0 9.53203 0.522222 8.27648 1.56667 7.23203C2.61111 6.18759 3.86667 5.66536 5.33333 5.66536H8V0.332031H13.3333V5.66536H34.6667V0.332031H40V5.66536H42.6667C44.1333 5.66536 45.3889 6.18759 46.4333 7.23203C47.4778 8.27648 48 9.53203 48 10.9987V26.132C47.1556 25.732 46.2889 25.3987 45.4 25.132C44.5111 24.8654 43.6 24.6654 42.6667 24.532V21.6654H5.33333V48.332H22.1333C22.4444 49.3098 22.8111 50.2431 23.2333 51.132C23.6556 52.0209 24.1556 52.8654 24.7333 53.6654H5.33333ZM40 56.332C36.3111 56.332 33.1667 55.032 30.5667 52.432C27.9667 49.832 26.6667 46.6876 26.6667 42.9987C26.6667 39.3098 27.9667 36.1654 30.5667 33.5654C33.1667 30.9654 36.3111 29.6654 40 29.6654C43.6889 29.6654 46.8333 30.9654 49.4333 33.5654C52.0333 36.1654 53.3333 39.3098 53.3333 42.9987C53.3333 46.6876 52.0333 49.832 49.4333 52.432C46.8333 55.032 43.6889 56.332 40 56.332ZM44.4667 49.332L46.3333 47.4654L41.3333 42.4654V34.9987H38.6667V43.532L44.4667 49.332Z" fill="#474747"/>
</svg>
