<svg width="40" height="40" viewBox="0 0 40 40" fill="none" xmlns="http://www.w3.org/2000/svg">
<mask id="mask0_1408_15140" style="mask-type:alpha" maskUnits="userSpaceOnUse" x="0" y="0" width="40" height="40">
<rect width="40" height="40" fill="#D9D9D9"/>
</mask>
<g mask="url(#mask0_1408_15140)">
<path d="M11.6667 36.6667C10.75 36.6667 9.96527 36.3403 9.31249 35.6875C8.65971 35.0347 8.33332 34.25 8.33332 33.3333C8.33332 32.4167 8.65971 31.632 9.31249 30.9792C9.96527 30.3264 10.75 30 11.6667 30C12.5833 30 13.368 30.3264 14.0208 30.9792C14.6736 31.632 15 32.4167 15 33.3333C15 34.25 14.6736 35.0347 14.0208 35.6875C13.368 36.3403 12.5833 36.6667 11.6667 36.6667ZM28.3333 36.6667C27.4167 36.6667 26.6319 36.3403 25.9792 35.6875C25.3264 35.0347 25 34.25 25 33.3333C25 32.4167 25.3264 31.632 25.9792 30.9792C26.6319 30.3264 27.4167 30 28.3333 30C29.25 30 30.0347 30.3264 30.6875 30.9792C31.3403 31.632 31.6667 32.4167 31.6667 33.3333C31.6667 34.25 31.3403 35.0347 30.6875 35.6875C30.0347 36.3403 29.25 36.6667 28.3333 36.6667ZM10.25 10L14.25 18.3333H25.9167L30.5 10H10.25ZM8.66666 6.66668H33.25C33.8889 6.66668 34.375 6.9514 34.7083 7.52084C35.0417 8.09029 35.0555 8.66668 34.75 9.25001L28.8333 19.9167C28.5278 20.4722 28.118 20.9028 27.6042 21.2083C27.0903 21.5139 26.5278 21.6667 25.9167 21.6667H13.5L11.6667 25H31.6667V28.3333H11.6667C10.4167 28.3333 9.47221 27.7847 8.83332 26.6875C8.19443 25.5903 8.16666 24.5 8.74999 23.4167L11 19.3333L4.99999 6.66668H1.66666V3.33334H7.08332L8.66666 6.66668Z" fill="#474747"/>
</g>
</svg>
