<svg width="88" height="88" viewBox="0 0 88 88" fill="none" xmlns="http://www.w3.org/2000/svg">
<mask id="mask0_2541_131187" style="mask-type:alpha" maskUnits="userSpaceOnUse" x="0" y="0" width="88" height="88">
<rect width="88" height="88" fill="#D9D9D9"/>
</mask>
<g mask="url(#mask0_2541_131187)">
<path d="M43.9999 72.875C42.961 72.875 41.9527 72.6458 40.9749 72.1875C39.9971 71.7292 39.1416 71.0722 38.4083 70.2167L10.3583 36.6667C9.80825 35.9944 9.39575 35.2611 9.12075 34.4667C8.84575 33.6722 8.70825 32.8472 8.70825 31.9917C8.70825 31.4417 8.75409 30.8764 8.84575 30.2958C8.93742 29.7153 9.13603 29.1806 9.44159 28.6917L16.3166 15.0333C16.9888 13.8111 17.8902 12.8333 19.0208 12.1C20.1513 11.3667 21.4194 11 22.8249 11H65.1749C66.5805 11 67.8485 11.3667 68.9791 12.1C70.1096 12.8333 71.011 13.8111 71.6833 15.0333L78.5583 28.6917C78.8638 29.1806 79.0624 29.7153 79.1541 30.2958C79.2458 30.8764 79.2916 31.4417 79.2916 31.9917C79.2916 32.8472 79.1541 33.6722 78.8791 34.4667C78.6041 35.2611 78.1916 35.9944 77.6416 36.6667L49.5916 70.2167C48.8583 71.0722 48.0027 71.7292 47.0249 72.1875C46.0471 72.6458 45.0388 72.875 43.9999 72.875ZM35.2916 29.3333H52.7083L47.2083 18.3333H40.7916L35.2916 29.3333ZM40.3333 61.1417V36.6667H19.9833L40.3333 61.1417ZM47.6666 61.1417L68.0166 36.6667H47.6666V61.1417ZM60.8666 29.3333H70.5832L65.0832 18.3333H55.3666L60.8666 29.3333ZM17.4166 29.3333H27.1333L32.6333 18.3333H22.9166L17.4166 29.3333Z" fill="#067CB7"/>
</g>
</svg>
