<svg width="32" height="28" viewBox="0 0 32 28" fill="none" xmlns="http://www.w3.org/2000/svg">
<path d="M16.0001 27.6442C15.5707 27.6442 15.1551 27.5533 14.7534 27.3717C14.3518 27.19 14.0002 26.9208 13.6989 26.5642L1.07719 11.4421C0.84858 11.1687 0.677052 10.8703 0.562607 10.5467C0.448441 10.2228 0.391357 9.88249 0.391357 9.52582C0.391357 9.29693 0.41483 9.06666 0.461774 8.83499C0.508719 8.60304 0.590941 8.38138 0.708441 8.16999L3.75344 2.07374C4.02677 1.57152 4.39914 1.16985 4.87052 0.868739C5.34164 0.56735 5.86455 0.416656 6.43927 0.416656H25.5609C26.1357 0.416656 26.6586 0.56735 27.1297 0.868739C27.6011 1.16985 27.9734 1.57152 28.2468 2.07374L31.2918 8.16999C31.4093 8.38138 31.4915 8.60304 31.5384 8.83499C31.5854 9.06666 31.6089 9.29693 31.6089 9.52582C31.6089 9.88249 31.5518 10.2228 31.4376 10.5467C31.3232 10.8703 31.1516 11.1687 30.923 11.4421L18.3014 26.5642C18 26.9208 17.6484 27.19 17.2468 27.3717C16.8451 27.5533 16.4296 27.6442 16.0001 27.6442ZM11.3684 8.74999H20.6318L17.7147 2.91666H14.2855L11.3684 8.74999ZM14.7501 23.9454V11.25H4.20177L14.7501 23.9454ZM17.2501 23.9454L27.7984 11.25H17.2501V23.9454ZM23.4105 8.74999H28.7568L25.9843 3.20499C25.9415 3.11971 25.8773 3.05027 25.7918 2.99666C25.7062 2.94332 25.6154 2.91666 25.5193 2.91666H20.4934L23.4105 8.74999ZM3.24344 8.74999H8.58969L11.5068 2.91666H6.48094C6.38483 2.91666 6.294 2.94332 6.20844 2.99666C6.12289 3.05027 6.05872 3.11971 6.01594 3.20499L3.24344 8.74999Z" fill="#474747"/>
</svg>
