<svg width="10" height="18" viewBox="0 0 10 18" fill="none" xmlns="http://www.w3.org/2000/svg">
<path d="M4.02501 18V15.85C3.14168 15.65 2.37918 15.2667 1.73751 14.7C1.09585 14.1333 0.625012 13.3333 0.325012 12.3L2.17501 11.55C2.42501 12.35 2.79585 12.9583 3.28751 13.375C3.77918 13.7917 4.42501 14 5.22501 14C5.90835 14 6.48751 13.8458 6.96251 13.5375C7.43751 13.2292 7.67501 12.75 7.67501 12.1C7.67501 11.5167 7.49168 11.0542 7.12501 10.7125C6.75835 10.3708 5.90835 9.98333 4.57501 9.55C3.14168 9.1 2.15835 8.5625 1.62501 7.9375C1.09168 7.3125 0.825012 6.55 0.825012 5.65C0.825012 4.56667 1.17501 3.725 1.87501 3.125C2.57501 2.525 3.29168 2.18333 4.02501 2.1V0H6.02501V2.1C6.85835 2.23333 7.54585 2.5375 8.08751 3.0125C8.62918 3.4875 9.02501 4.06667 9.27501 4.75L7.42501 5.55C7.22501 5.01667 6.94168 4.61667 6.57501 4.35C6.20835 4.08333 5.70835 3.95 5.07501 3.95C4.34168 3.95 3.78335 4.1125 3.40001 4.4375C3.01668 4.7625 2.82501 5.16667 2.82501 5.65C2.82501 6.2 3.07501 6.63333 3.57501 6.95C4.07501 7.26667 4.94168 7.6 6.17501 7.95C7.32501 8.28333 8.19585 8.8125 8.78751 9.5375C9.37918 10.2625 9.67501 11.1 9.67501 12.05C9.67501 13.2333 9.32501 14.1333 8.62501 14.75C7.92501 15.3667 7.05835 15.75 6.02501 15.9V18H4.02501Z" fill="#474747"/>
</svg>
