<svg width="67" height="66" viewBox="0 0 67 66" fill="none" xmlns="http://www.w3.org/2000/svg">
<path d="M7.83333 58.6667H13.0583L48.9 22.825L43.675 17.6L7.83333 53.4417V58.6667ZM0.5 66V50.4167L48.9 2.10833C49.6333 1.43611 50.4431 0.916667 51.3292 0.55C52.2153 0.183333 53.1472 0 54.125 0C55.1028 0 56.05 0.183333 56.9667 0.55C57.8833 0.916667 58.6778 1.46667 59.35 2.2L64.3917 7.33333C65.125 8.00556 65.6597 8.8 65.9958 9.71667C66.332 10.6333 66.5 11.55 66.5 12.4667C66.5 13.4444 66.332 14.3764 65.9958 15.2625C65.6597 16.1486 65.125 16.9583 64.3917 17.6917L16.0833 66H0.5ZM46.2417 20.2583L43.675 17.6L48.9 22.825L46.2417 20.2583Z" fill="#067CB7"/>
</svg>
