<svg id="favorite-icon" width="40" height="40" viewBox="0 0 40 40" fill="none" xmlns="http://www.w3.org/2000/svg">
<mask id="mask0_1408_15136" style="mask-type:alpha" maskUnits="userSpaceOnUse" x="0" y="0" width="40" height="40">
<rect width="40" height="40" fill="#D9D9D9"/>
</mask>
<g mask="url(#mask0_1408_15136)">
<path d="M20 35L17.5833 32.8333C14.7778 30.3055 12.4583 28.125 10.625 26.2917C8.79168 24.4583 7.33334 22.8125 6.25001 21.3542C5.16668 19.8958 4.40973 18.5555 3.97918 17.3333C3.54862 16.1111 3.33334 14.8611 3.33334 13.5833C3.33334 10.9722 4.20834 8.79166 5.95834 7.04166C7.70834 5.29166 9.8889 4.41666 12.5 4.41666C13.9445 4.41666 15.3195 4.72221 16.625 5.33332C17.9306 5.94443 19.0556 6.80555 20 7.91666C20.9445 6.80555 22.0695 5.94443 23.375 5.33332C24.6806 4.72221 26.0556 4.41666 27.5 4.41666C30.1111 4.41666 32.2917 5.29166 34.0417 7.04166C35.7917 8.79166 36.6667 10.9722 36.6667 13.5833C36.6667 14.8611 36.4514 16.1111 36.0208 17.3333C35.5903 18.5555 34.8333 19.8958 33.75 21.3542C32.6667 22.8125 31.2083 24.4583 29.375 26.2917C27.5417 28.125 25.2222 30.3055 22.4167 32.8333L20 35ZM20 30.5C22.6667 28.1111 24.8611 26.0625 26.5833 24.3542C28.3056 22.6458 29.6667 21.1597 30.6667 19.8958C31.6667 18.6319 32.3611 17.5069 32.75 16.5208C33.1389 15.5347 33.3333 14.5555 33.3333 13.5833C33.3333 11.9167 32.7778 10.5278 31.6667 9.41666C30.5556 8.30555 29.1667 7.74999 27.5 7.74999C26.1945 7.74999 24.9861 8.11805 23.875 8.85416C22.7639 9.59027 22 10.5278 21.5833 11.6667H18.4167C18 10.5278 17.2361 9.59027 16.125 8.85416C15.0139 8.11805 13.8056 7.74999 12.5 7.74999C10.8333 7.74999 9.44446 8.30555 8.33334 9.41666C7.22223 10.5278 6.66668 11.9167 6.66668 13.5833C6.66668 14.5555 6.86112 15.5347 7.25001 16.5208C7.6389 17.5069 8.33334 18.6319 9.33334 19.8958C10.3333 21.1597 11.6945 22.6458 13.4167 24.3542C15.1389 26.0625 17.3333 28.1111 20 30.5Z" fill="#474747"/>
</g>
</svg>
