<svg width="142" height="24" viewBox="0 0 142 24" fill="none" xmlns="http://www.w3.org/2000/svg">
<mask id="mask0_3089_8914" style="mask-type:alpha" maskUnits="userSpaceOnUse" x="0" y="0" width="24" height="24">
<rect width="24" height="24" fill="#D9D9D9"/>
</mask>
<g mask="url(#mask0_3089_8914)">
<path d="M8 18H16V16H8V18ZM8 14H16V12H8V14ZM6 22C5.45 22 4.97917 21.8042 4.5875 21.4125C4.19583 21.0208 4 20.55 4 20V4C4 3.45 4.19583 2.97917 4.5875 2.5875C4.97917 2.19583 5.45 2 6 2H14L20 8V20C20 20.55 19.8042 21.0208 19.4125 21.4125C19.0208 21.8042 18.55 22 18 22H6ZM13 9V4H6V20H18V9H13Z" fill="#474747"/>
</g>
<path d="M33.0114 17.5V5.86364H40.7159V7.89205H35.4716V10.6648H40.2045V12.6932H35.4716V17.5H33.0114ZM42.3253 17.5V8.77273H44.7457V17.5H42.3253ZM43.5412 7.64773C43.1813 7.64773 42.8726 7.52841 42.6151 7.28977C42.3613 7.04735 42.2344 6.75758 42.2344 6.42045C42.2344 6.08712 42.3613 5.80114 42.6151 5.5625C42.8726 5.32008 43.1813 5.19886 43.5412 5.19886C43.901 5.19886 44.2079 5.32008 44.4616 5.5625C44.7192 5.80114 44.848 6.08712 44.848 6.42045C44.848 6.75758 44.7192 7.04735 44.4616 7.28977C44.2079 7.52841 43.901 7.64773 43.5412 7.64773ZM49.1051 5.86364V17.5H46.6847V5.86364H49.1051ZM55.0213 17.6705C54.1236 17.6705 53.3509 17.4886 52.7031 17.125C52.0592 16.7576 51.563 16.2386 51.2145 15.5682C50.866 14.8939 50.6918 14.0966 50.6918 13.1761C50.6918 12.2784 50.866 11.4905 51.2145 10.8125C51.563 10.1345 52.0535 9.60606 52.6861 9.22727C53.3224 8.84848 54.0687 8.65909 54.9247 8.65909C55.5005 8.65909 56.0365 8.75189 56.5327 8.9375C57.0327 9.11932 57.4683 9.39394 57.8395 9.76136C58.2145 10.1288 58.5062 10.5909 58.7145 11.1477C58.9228 11.7008 59.027 12.3485 59.027 13.0909V13.7557H51.6577V12.2557H56.7486C56.7486 11.9072 56.6728 11.5985 56.5213 11.3295C56.3698 11.0606 56.1596 10.8504 55.8906 10.6989C55.6255 10.5436 55.3168 10.4659 54.9645 10.4659C54.5971 10.4659 54.2713 10.5511 53.9872 10.7216C53.7069 10.8883 53.4872 11.1136 53.3281 11.3977C53.169 11.678 53.0876 11.9905 53.0838 12.3352V13.7614C53.0838 14.1932 53.1634 14.5663 53.3224 14.8807C53.4853 15.1951 53.7145 15.4375 54.0099 15.608C54.3054 15.7784 54.6558 15.8636 55.0611 15.8636C55.33 15.8636 55.5762 15.8258 55.7997 15.75C56.0232 15.6742 56.2145 15.5606 56.3736 15.4091C56.5327 15.2576 56.6539 15.072 56.7372 14.8523L58.9759 15C58.8622 15.5379 58.6293 16.0076 58.277 16.4091C57.9285 16.8068 57.4777 17.1174 56.9247 17.3409C56.3755 17.5606 55.741 17.6705 55.0213 17.6705ZM67.2713 17.5V19.3352H59.6293V17.5H67.2713ZM78.0099 5.86364V17.5H75.8849L70.8224 10.1761H70.7372V17.5H68.277V5.86364H70.4361L75.4588 13.1818H75.5611V5.86364H78.0099ZM82.4858 17.6648C81.929 17.6648 81.4328 17.5682 80.9972 17.375C80.5616 17.178 80.2169 16.8883 79.9631 16.5057C79.7131 16.1193 79.5881 15.6383 79.5881 15.0625C79.5881 14.5777 79.6771 14.1705 79.8551 13.8409C80.0331 13.5114 80.2756 13.2462 80.5824 13.0455C80.8892 12.8447 81.2377 12.6932 81.6278 12.5909C82.0218 12.4886 82.4347 12.4167 82.8665 12.375C83.3741 12.322 83.7831 12.2727 84.0938 12.2273C84.4044 12.178 84.6297 12.1061 84.7699 12.0114C84.91 11.9167 84.9801 11.7765 84.9801 11.5909V11.5568C84.9801 11.197 84.8665 10.9186 84.6392 10.7216C84.4157 10.5246 84.0975 10.4261 83.6847 10.4261C83.2491 10.4261 82.9025 10.5227 82.6449 10.7159C82.3873 10.9053 82.2169 11.1439 82.1335 11.4318L79.8949 11.25C80.0085 10.7197 80.232 10.2614 80.5653 9.875C80.8987 9.48485 81.3286 9.18561 81.8551 8.97727C82.3854 8.76515 82.9991 8.65909 83.696 8.65909C84.1809 8.65909 84.6449 8.71591 85.0881 8.82955C85.535 8.94318 85.9309 9.11932 86.2756 9.35795C86.6241 9.59659 86.8987 9.90341 87.0994 10.2784C87.3002 10.6496 87.4006 11.0947 87.4006 11.6136V17.5H85.1051V16.2898H85.0369C84.8968 16.5625 84.7093 16.803 84.4744 17.0114C84.2396 17.2159 83.9574 17.3769 83.6278 17.4943C83.2983 17.608 82.9176 17.6648 82.4858 17.6648ZM83.179 15.9943C83.535 15.9943 83.8494 15.9242 84.1222 15.7841C84.3949 15.6402 84.6089 15.447 84.7642 15.2045C84.9195 14.9621 84.9972 14.6875 84.9972 14.3807V13.4545C84.9214 13.5038 84.8172 13.5492 84.6847 13.5909C84.5559 13.6288 84.41 13.6648 84.2472 13.6989C84.0843 13.7292 83.9214 13.7576 83.7585 13.7841C83.5956 13.8068 83.4479 13.8277 83.3153 13.8466C83.0313 13.8883 82.7831 13.9545 82.571 14.0455C82.3589 14.1364 82.1941 14.2595 82.0767 14.4148C81.9593 14.5663 81.9006 14.7557 81.9006 14.983C81.9006 15.3125 82.0199 15.5644 82.2585 15.7386C82.5009 15.9091 82.8078 15.9943 83.179 15.9943ZM89.2784 17.5V8.77273H91.5852V10.3125H91.6875C91.8693 9.80114 92.1723 9.39773 92.5966 9.10227C93.0208 8.80682 93.5284 8.65909 94.1193 8.65909C94.7178 8.65909 95.2273 8.80871 95.6477 9.10795C96.0682 9.40341 96.3485 9.80492 96.4886 10.3125H96.5795C96.7576 9.8125 97.0795 9.41288 97.5455 9.11364C98.0152 8.81061 98.5701 8.65909 99.2102 8.65909C100.025 8.65909 100.686 8.91856 101.193 9.4375C101.705 9.95265 101.96 10.6837 101.96 11.6307V17.5H99.5455V12.108C99.5455 11.6231 99.4167 11.2595 99.1591 11.017C98.9015 10.7746 98.5795 10.6534 98.1932 10.6534C97.7538 10.6534 97.411 10.7936 97.1648 11.0739C96.9186 11.3504 96.7955 11.7159 96.7955 12.1705V17.5H94.4489V12.0568C94.4489 11.6288 94.3258 11.2879 94.0795 11.0341C93.8371 10.7803 93.517 10.6534 93.1193 10.6534C92.8504 10.6534 92.608 10.7216 92.392 10.858C92.1799 10.9905 92.0114 11.178 91.8864 11.4205C91.7614 11.6591 91.6989 11.9394 91.6989 12.2614V17.5H89.2784ZM107.849 17.6705C106.952 17.6705 106.179 17.4886 105.531 17.125C104.887 16.7576 104.391 16.2386 104.043 15.5682C103.694 14.8939 103.52 14.0966 103.52 13.1761C103.52 12.2784 103.694 11.4905 104.043 10.8125C104.391 10.1345 104.882 9.60606 105.514 9.22727C106.151 8.84848 106.897 8.65909 107.753 8.65909C108.329 8.65909 108.865 8.75189 109.361 8.9375C109.861 9.11932 110.296 9.39394 110.668 9.76136C111.043 10.1288 111.334 10.5909 111.543 11.1477C111.751 11.7008 111.855 12.3485 111.855 13.0909V13.7557H104.486V12.2557H109.577C109.577 11.9072 109.501 11.5985 109.349 11.3295C109.198 11.0606 108.988 10.8504 108.719 10.6989C108.454 10.5436 108.145 10.4659 107.793 10.4659C107.425 10.4659 107.099 10.5511 106.815 10.7216C106.535 10.8883 106.315 11.1136 106.156 11.3977C105.997 11.678 105.916 11.9905 105.912 12.3352V13.7614C105.912 14.1932 105.991 14.5663 106.151 14.8807C106.313 15.1951 106.543 15.4375 106.838 15.608C107.134 15.7784 107.484 15.8636 107.889 15.8636C108.158 15.8636 108.404 15.8258 108.628 15.75C108.851 15.6742 109.043 15.5606 109.202 15.4091C109.361 15.2576 109.482 15.072 109.565 14.8523L111.804 15C111.69 15.5379 111.457 16.0076 111.105 16.4091C110.757 16.8068 110.306 17.1174 109.753 17.3409C109.204 17.5606 108.569 17.6705 107.849 17.6705ZM114.849 17.6477C114.474 17.6477 114.152 17.5152 113.884 17.25C113.618 16.9811 113.486 16.6591 113.486 16.2841C113.486 15.9129 113.618 15.5947 113.884 15.3295C114.152 15.0644 114.474 14.9318 114.849 14.9318C115.213 14.9318 115.531 15.0644 115.804 15.3295C116.077 15.5947 116.213 15.9129 116.213 16.2841C116.213 16.5341 116.149 16.7633 116.02 16.9716C115.895 17.1761 115.73 17.3409 115.526 17.4659C115.321 17.5871 115.096 17.6477 114.849 17.6477ZM118.2 8.77273H120.621V17.9318C120.621 18.6061 120.488 19.1515 120.223 19.5682C119.958 19.9848 119.577 20.2898 119.081 20.483C118.589 20.6761 118 20.7727 117.314 20.7727C117.231 20.7727 117.151 20.7708 117.075 20.767C116.996 20.767 116.912 20.7652 116.825 20.7614V18.8693C116.89 18.8731 116.946 18.875 116.996 18.875C117.041 18.8788 117.09 18.8807 117.143 18.8807C117.534 18.8807 117.806 18.7973 117.962 18.6307C118.121 18.4678 118.2 18.2216 118.2 17.892V8.77273ZM119.405 7.64773C119.049 7.64773 118.742 7.52841 118.484 7.28977C118.227 7.04735 118.098 6.75758 118.098 6.42045C118.098 6.08712 118.227 5.80114 118.484 5.5625C118.742 5.32008 119.049 5.19886 119.405 5.19886C119.768 5.19886 120.077 5.32008 120.331 5.5625C120.589 5.80114 120.717 6.08712 120.717 6.42045C120.717 6.75758 120.589 7.04735 120.331 7.28977C120.077 7.52841 119.768 7.64773 119.405 7.64773ZM122.56 20.7727V8.77273H124.946V10.2386H125.054C125.16 10.0038 125.313 9.76515 125.514 9.52273C125.719 9.27652 125.984 9.07197 126.31 8.90909C126.639 8.74242 127.048 8.65909 127.537 8.65909C128.173 8.65909 128.76 8.82576 129.298 9.15909C129.836 9.48864 130.266 9.98674 130.588 10.6534C130.91 11.3163 131.071 12.1477 131.071 13.1477C131.071 14.1212 130.914 14.9432 130.599 15.6136C130.289 16.2803 129.865 16.786 129.327 17.1307C128.793 17.4716 128.194 17.642 127.531 17.642C127.062 17.642 126.662 17.5644 126.332 17.4091C126.007 17.2538 125.74 17.0587 125.531 16.8239C125.323 16.5852 125.164 16.3447 125.054 16.1023H124.98V20.7727H122.56ZM124.929 13.1364C124.929 13.6553 125.001 14.108 125.145 14.4943C125.289 14.8807 125.497 15.1818 125.77 15.3977C126.043 15.6098 126.374 15.7159 126.764 15.7159C127.158 15.7159 127.491 15.608 127.764 15.392C128.037 15.1723 128.243 14.8693 128.384 14.483C128.527 14.0928 128.599 13.6439 128.599 13.1364C128.599 12.6326 128.529 12.1894 128.389 11.8068C128.249 11.4242 128.043 11.125 127.77 10.9091C127.497 10.6932 127.162 10.5852 126.764 10.5852C126.37 10.5852 126.037 10.6894 125.764 10.8977C125.495 11.1061 125.289 11.4015 125.145 11.7841C125.001 12.1667 124.929 12.6174 124.929 13.1364ZM136.616 20.9545C135.832 20.9545 135.16 20.8466 134.599 20.6307C134.043 20.4186 133.599 20.1288 133.27 19.7614C132.94 19.3939 132.726 18.9811 132.628 18.5227L134.866 18.2216C134.935 18.3958 135.043 18.5587 135.19 18.7102C135.338 18.8617 135.533 18.983 135.776 19.0739C136.022 19.1686 136.321 19.2159 136.673 19.2159C137.2 19.2159 137.634 19.0871 137.974 18.8295C138.319 18.5758 138.491 18.1496 138.491 17.5511V15.9545H138.389C138.283 16.197 138.124 16.4261 137.912 16.642C137.7 16.858 137.427 17.0341 137.094 17.1705C136.76 17.3068 136.363 17.375 135.901 17.375C135.245 17.375 134.649 17.2235 134.111 16.9205C133.577 16.6136 133.151 16.1458 132.832 15.517C132.518 14.8845 132.361 14.0852 132.361 13.1193C132.361 12.1307 132.522 11.3049 132.844 10.642C133.166 9.97917 133.594 9.48295 134.128 9.15341C134.666 8.82386 135.255 8.65909 135.895 8.65909C136.384 8.65909 136.793 8.74242 137.122 8.90909C137.452 9.07197 137.717 9.27652 137.918 9.52273C138.122 9.76515 138.279 10.0038 138.389 10.2386H138.48V8.77273H140.884V17.5852C140.884 18.3277 140.702 18.9489 140.338 19.4489C139.974 19.9489 139.471 20.3239 138.827 20.5739C138.187 20.8277 137.45 20.9545 136.616 20.9545ZM136.668 15.5568C137.058 15.5568 137.387 15.4602 137.656 15.267C137.929 15.0701 138.137 14.7898 138.281 14.4261C138.429 14.0587 138.503 13.6193 138.503 13.108C138.503 12.5966 138.431 12.1534 138.287 11.7784C138.143 11.3996 137.935 11.1061 137.662 10.8977C137.389 10.6894 137.058 10.5852 136.668 10.5852C136.27 10.5852 135.935 10.6932 135.662 10.9091C135.389 11.1212 135.183 11.4167 135.043 11.7955C134.902 12.1742 134.832 12.6117 134.832 13.108C134.832 13.6117 134.902 14.0473 135.043 14.4148C135.187 14.7784 135.393 15.0606 135.662 15.2614C135.935 15.4583 136.27 15.5568 136.668 15.5568Z" fill="#171717"/>
</svg>
