  <svg>
    <symbol id="location-icon" viewBox="0 0 40 41" xmlns="http://www.w3.org/2000/svg">
      <mask id="mask0_1297_14938" style="mask-type:alpha" maskUnits="userSpaceOnUse" x="0" y="0" width="40" height="41">
        <rect y="0.5" width="40" height="40" fill="currentcolor" />
      </mask>
      <g mask="url(#mask0_1297_14938)">
        <path
          d="M20 20.5C20.9167 20.5 21.7014 20.1736 22.3542 19.5208C23.007 18.868 23.3334 18.0833 23.3334 17.1666C23.3334 16.25 23.007 15.4653 22.3542 14.8125C21.7014 14.1597 20.9167 13.8333 20 13.8333C19.0834 13.8333 18.2986 14.1597 17.6459 14.8125C16.9931 15.4653 16.6667 16.25 16.6667 17.1666C16.6667 18.0833 16.9931 18.868 17.6459 19.5208C18.2986 20.1736 19.0834 20.5 20 20.5ZM20 32.75C23.3889 29.6389 25.9028 26.8125 27.5417 24.2708C29.1806 21.7291 30 19.4722 30 17.5C30 14.4722 29.0347 11.993 27.1042 10.0625C25.1736 8.13192 22.8056 7.16665 20 7.16665C17.1945 7.16665 14.8264 8.13192 12.8959 10.0625C10.9653 11.993 10 14.4722 10 17.5C10 19.4722 10.8195 21.7291 12.4584 24.2708C14.0972 26.8125 16.6111 29.6389 20 32.75ZM20 37.1666C15.5278 33.3611 12.1875 29.8264 9.97919 26.5625C7.77085 23.2986 6.66669 20.2778 6.66669 17.5C6.66669 13.3333 8.00696 10.0139 10.6875 7.54165C13.3681 5.06942 16.4722 3.83331 20 3.83331C23.5278 3.83331 26.632 5.06942 29.3125 7.54165C31.9931 10.0139 33.3334 13.3333 33.3334 17.5C33.3334 20.2778 32.2292 23.2986 30.0209 26.5625C27.8125 29.8264 24.4722 33.3611 20 37.1666Z"
          fill="currentcolor" />
      </g>
    </symbol>
  </svg>