<svg width="238" height="30" viewBox="0 0 238 30" fill="none" xmlns="http://www.w3.org/2000/svg">
<g id="Group">
<path id="Vector" d="M0 29.3998V13.7183C0 5.72709 4.52528 2.56201 9.8026 2.56201C15.3807 2.56201 19.6052 6.62953 19.6052 11.8742C19.6052 18.1716 14.7856 21.3956 7.99772 21.3956V14.1499C9.16827 14.1499 11.9541 14.4115 11.9541 12.3973C11.9541 11.1875 11.3132 10.2458 10.2211 10.2458C8.82823 10.2458 8.2266 10.9979 8.2266 12.7374V29.3998H0Z" fill="#E71C24"/>
<path id="Vector_2" d="M33.2269 29.3998V19.9765C33.2269 18.2828 31.8667 17.2627 30.4345 17.2627C29.0024 17.2627 27.7926 18.2828 27.7926 19.9765C27.7926 21.631 28.9959 22.6904 30.2449 22.6904C31.5397 22.6904 33.1026 22.4942 33.2661 20.0419L33.75 28.1312C32.7103 29.3083 31.0885 29.8445 29.5975 29.8445C24.3987 29.8445 20.1742 25.5874 20.1742 20.5389C20.1742 14.2807 24.621 10.0955 29.9768 10.0955C35.5942 10.0955 40.8322 13.5614 40.8322 22.0822V29.3998H33.2269Z" fill="#E71C24"/>
<path id="Vector_3" d="M225.388 29.3998V19.9765C225.388 18.2828 224.028 17.2627 222.596 17.2627C221.164 17.2627 219.954 18.2828 219.954 19.9765C219.954 21.631 221.157 22.6904 222.406 22.6904C223.701 22.6904 225.264 22.4942 225.427 20.0419L225.911 28.1312C224.871 29.3083 223.25 29.8445 221.759 29.8445C216.56 29.8445 212.335 25.5874 212.335 20.5389C212.335 14.2807 216.782 10.0955 222.138 10.0955C227.755 10.0955 232.993 13.5614 232.993 22.0822V29.3998H225.388Z" fill="#E71C24"/>
<path id="Vector_4" d="M61.2809 10.5467V20.3166C61.2809 22.54 61.8826 23.0631 62.6738 23.0631C63.4651 23.0631 64.034 22.5334 64.034 20.3166V10.5467H71.574V22.383C71.574 26.7579 67.9185 29.8445 63.4716 29.8445C61.2482 29.8445 59.0641 29.0532 57.5142 27.5099C55.9709 29.0598 53.7802 29.8445 51.5568 29.8445C47.11 29.8445 43.4545 26.7579 43.4545 22.383V10.5467H50.9944V20.3166C50.9944 22.54 51.5568 23.0631 52.3546 23.0631C53.1459 23.0631 53.7475 22.5334 53.7475 20.3166V10.5467H61.2809Z" fill="#E71C24"/>
<path id="Vector_5" d="M74.2225 29.3998V18.0866C74.2225 13.7183 77.2372 10.0955 83.1162 10.0955C88.9951 10.0955 92.0163 13.7118 92.0163 18.0866V29.3998H84.4764V19.2572C84.4764 17.5962 84.0644 17.0338 83.1227 17.0338C82.181 17.0338 81.7625 17.6027 81.7625 19.2572V29.3998H74.2225Z" fill="#E71C24"/>
<path id="Vector_6" d="M102.25 14.6599H107.096V12.3254C107.096 10.9717 106.305 10.1739 105.213 10.1739C104.121 10.1739 103.362 10.9652 103.362 12.3254V29.4064H95.1421V12.515C95.1421 8.82024 97.8167 2.56201 105.245 2.56201C112.674 2.56201 115.31 8.82024 115.31 12.515V29.3998H107.09V21.3694H102.244V14.6599" fill="#E71C24"/>
<path id="Vector_7" d="M128.827 29.3998V19.6365C128.827 17.4065 128.225 16.8834 127.434 16.8834C126.643 16.8834 126.074 17.4065 126.074 19.6365V29.3998H118.534V17.5635C118.534 13.1951 122.196 10.102 126.636 10.102C128.859 10.102 131.05 10.8933 132.593 12.4366C134.137 10.8933 136.327 10.102 138.551 10.102C142.998 10.102 146.653 13.1951 146.653 17.5635V29.3998H139.12V19.6365C139.12 17.4065 138.551 16.8834 137.76 16.8834C136.968 16.8834 136.367 17.4065 136.367 19.6365V29.3998H128.827Z" fill="#E71C24"/>
<path id="Vector_8" d="M156.371 23.959L155.599 19.7477L160.994 16.7003C160.353 16.1771 159.712 15.909 158.62 15.909C157.417 15.909 155.907 17.7531 155.907 19.3749C155.907 21.7095 157.188 23.5928 159.673 23.5928C161.786 23.5928 163.146 22.5007 164.499 21.0686L168.757 25.365C166.415 27.9677 162.838 29.8511 158.954 29.8511C153.147 29.8511 149.04 25.5939 149.04 19.7084C149.04 14.1695 153.827 10.0955 158.575 10.0955C164.074 10.0955 167.468 13.1101 168.75 17.4065L159.366 22.5727" fill="#E71C24"/>
<path id="Vector_9" d="M171.183 10.5467H178.343V12.7701H178.422C180.044 10.3963 181.365 10.0955 184.68 10.0955H185.582V16.5826H184.758C180.233 16.5826 178.69 18.2043 178.69 22.3503V29.3998H171.189V10.5467" fill="#E71C24"/>
<path id="Vector_10" d="M195.019 29.3998H187.472V10.5467H195.019V29.3998ZM195.692 4.59578C195.692 7.00883 193.691 9.04259 191.246 9.04259C188.793 9.04259 186.799 7.00883 186.799 4.59578C186.799 2.18273 188.8 0.148972 191.246 0.148972C193.698 0.142433 195.692 2.18273 195.692 4.59578Z" fill="#E71C24"/>
<path id="Vector_11" d="M210.87 29.3998H206.267C201.029 29.3998 197.105 24.8353 197.105 19.9765C197.105 15.0719 201.029 10.5467 206.267 10.5467H210.87V17.0338H208.346C205.822 17.0338 204.73 18.0866 204.73 19.9765C204.73 21.8599 205.822 22.9127 208.346 22.9127H210.87V29.3998Z" fill="#E71C24"/>
<path id="Vector_12" d="M231.96 6.8911C231.96 5.36088 233.098 4.19032 234.589 4.19032C236.067 4.19032 237.205 5.36742 237.205 6.8911C237.205 8.44749 236.067 9.62458 234.589 9.62458C233.098 9.61804 231.96 8.44749 231.96 6.8911ZM231.378 6.8911C231.378 8.7156 232.843 10.0889 234.589 10.0889C236.328 10.0889 237.78 8.7156 237.78 6.8911C237.78 5.09276 236.328 3.71948 234.589 3.71948C232.849 3.71948 231.378 5.09276 231.378 6.8911ZM233.346 8.76138H233.928V7.16576H234.536L235.55 8.76138H236.171L235.105 7.11998C235.661 7.06113 236.086 6.77993 236.086 6.10637C236.086 5.38704 235.674 5.04045 234.785 5.04045H233.346V8.76138ZM233.928 5.50475H234.693C235.086 5.50475 235.511 5.58322 235.511 6.08022C235.511 6.66222 235.04 6.69492 234.53 6.69492H233.928V5.50475Z" fill="#E71C24"/>
</g>
</svg>
