<svg width="40" height="31" viewBox="0 0 40 31" fill="none" xmlns="http://www.w3.org/2000/svg">
<path d="M33.1967 25.9471C33.1967 26.4078 32.8859 26.7393 32.4386 26.7393C31.9779 26.7393 31.6805 26.3871 31.6805 25.9471C31.6805 25.5071 31.9779 25.1549 32.4386 25.1549C32.8859 25.1549 33.1967 25.5071 33.1967 25.9471ZM12.1525 25.1549C11.6711 25.1549 11.3944 25.5071 11.3944 25.9471C11.3944 26.3871 11.6723 26.7393 12.1525 26.7393C12.5925 26.7393 12.8898 26.4078 12.8898 25.9471C12.8825 25.5071 12.5925 25.1549 12.1525 25.1549ZM20.1085 25.1354C19.7429 25.1354 19.5186 25.3718 19.465 25.7241H20.7581C20.6972 25.3377 20.4607 25.1354 20.1085 25.1354ZM27.4076 25.1549C26.9469 25.1549 26.6702 25.5071 26.6702 25.9471C26.6702 26.3871 26.9481 26.7393 27.4076 26.7393C27.8683 26.7393 28.1657 26.4078 28.1657 25.9471C28.1657 25.5071 27.8671 25.1549 27.4076 25.1549ZM34.5775 26.9221C34.5775 26.9428 34.5982 26.9562 34.5982 26.9964C34.5982 27.0172 34.5775 27.0306 34.5775 27.0708C34.5568 27.0915 34.5568 27.1049 34.5434 27.1244C34.5227 27.1451 34.5092 27.1585 34.469 27.1585C34.4483 27.1793 34.4349 27.1793 34.3947 27.1793C34.374 27.1793 34.3606 27.1793 34.3203 27.1585C34.2996 27.1585 34.2862 27.1378 34.2667 27.1244C34.246 27.1037 34.2326 27.0903 34.2326 27.0708C34.2119 27.0367 34.2119 27.0172 34.2119 26.9964C34.2119 26.9623 34.2119 26.9428 34.2326 26.9221C34.2326 26.888 34.2533 26.8685 34.2667 26.8478C34.2874 26.827 34.3008 26.827 34.3203 26.8136C34.3545 26.7929 34.374 26.7929 34.3947 26.7929C34.4288 26.7929 34.4483 26.7929 34.469 26.8136C34.5032 26.8331 34.5227 26.8331 34.5434 26.8478C34.5641 26.8624 34.5568 26.888 34.5775 26.9221ZM34.4288 27.0172C34.4629 27.0172 34.4629 26.9964 34.4824 26.9964C34.5032 26.9757 34.5032 26.9623 34.5032 26.9428C34.5032 26.9233 34.5032 26.9087 34.4824 26.8892C34.4629 26.8892 34.4483 26.8685 34.4081 26.8685H34.2996V27.1049H34.3532V27.0098H34.374L34.4483 27.1049H34.5019L34.4288 27.0172ZM39.5 3.65128V27.4852C39.4991 28.3469 39.1563 29.1731 38.5469 29.7825C37.9376 30.3918 37.1114 30.7346 36.2496 30.7356H3.74922C2.88745 30.7346 2.06126 30.3918 1.4519 29.7825C0.842541 29.1731 0.499778 28.3469 0.49881 27.4852V3.65128C0.499778 2.78952 0.842541 1.96333 1.4519 1.35397C2.06126 0.74461 2.88745 0.401847 3.74922 0.400879H36.2496C37.1114 0.401847 37.9376 0.74461 38.5469 1.35397C39.1563 1.96333 39.4991 2.78952 39.5 3.65128ZM4.8339 13.1027C4.8339 18.2824 9.03859 22.4798 14.211 22.4798C16.0531 22.4748 17.8535 21.9313 19.3907 20.9161C14.4547 16.9015 14.4888 9.32457 19.3907 5.30878C17.855 4.29035 16.0536 3.74653 14.211 3.74513C9.03859 3.73904 4.8339 7.9425 4.8339 13.1027ZM20 20.47C24.7739 16.7455 24.7532 9.48788 20 5.74388C15.2469 9.48788 15.2262 16.7528 20 20.47ZM10.3646 25.6363C10.3646 25.0477 9.97825 24.6613 9.36887 24.6406C9.05687 24.6406 8.72537 24.7357 8.50234 25.0806C8.34025 24.8027 8.06237 24.6406 7.67603 24.6406C7.53552 24.6377 7.39647 24.6696 7.27123 24.7333C7.146 24.7971 7.03846 24.8909 6.95818 25.0062V24.7088H6.40365V27.1939H6.95818C6.95818 25.9142 6.78878 25.1488 7.56756 25.1488C8.25859 25.1488 8.12331 25.8398 8.12331 27.1939H8.65834C8.65834 25.9544 8.48893 25.1488 9.26772 25.1488C9.95875 25.1488 9.82225 25.8264 9.82225 27.1939H10.378V25.6363H10.3646ZM13.4054 24.7088H12.8703V25.0062C12.7758 24.8879 12.6549 24.7933 12.5174 24.7299C12.3799 24.6664 12.2295 24.6358 12.0782 24.6406C11.381 24.6406 10.846 25.1963 10.846 25.9471C10.846 26.7052 11.381 27.2536 12.0782 27.2536C12.4304 27.2536 12.6875 27.1244 12.8703 26.888V27.2H13.4054V24.7088ZM16.1476 26.4419C16.1476 25.4267 14.5973 25.8862 14.5973 25.4121C14.5973 25.0257 15.4029 25.0879 15.8502 25.3377L16.0732 24.8978C15.437 24.4846 14.0282 24.4919 14.0282 25.4535C14.0282 26.4212 15.5784 26.0153 15.5784 26.4687C15.5784 26.8953 14.6643 26.8612 14.1768 26.5223L13.9404 26.9489C14.6985 27.4632 16.1476 27.3548 16.1476 26.4407V26.4419ZM18.5448 27.0708L18.3962 26.6101C18.139 26.7515 17.5698 26.9075 17.5698 26.3322V25.2085H18.4571V24.7076H17.5698V23.9496H17.0141V24.7076H16.4998V25.2024H17.0141V26.3334C17.0141 27.5254 18.1853 27.3084 18.5448 27.0708ZM19.4443 26.164H21.3065C21.3065 25.0672 20.8056 24.6333 20.128 24.6333C19.4102 24.6333 18.8958 25.1683 18.8958 25.9398C18.8958 27.3279 20.4266 27.5583 21.1847 26.9014L20.9275 26.4955C20.3998 26.9294 19.6003 26.888 19.4443 26.164ZM23.4467 24.7088C23.1359 24.5736 22.6618 24.587 22.418 25.0062V24.7088H21.8623V27.1939H22.418V25.7923C22.418 25.0062 23.0615 25.1086 23.2846 25.2232L23.4467 24.7088ZM24.1645 25.9471C24.1645 25.1744 24.9506 24.9246 25.5661 25.3779L25.8232 24.938C25.0371 24.3225 23.6087 24.6601 23.6087 25.9532C23.6087 27.2938 25.1249 27.5644 25.8232 26.9684L25.5661 26.5284C24.9433 26.9684 24.1645 26.7052 24.1645 25.9459V25.9471ZM28.68 24.7088H28.1242V25.0062C27.5624 24.2616 26.0999 24.682 26.0999 25.9471C26.0999 27.2475 27.616 27.6192 28.1242 26.888V27.2H28.68V24.7088ZM30.9615 24.7088C30.7994 24.6272 30.2168 24.5126 29.9328 25.0062V24.7088H29.3978V27.1939H29.9328V25.7923C29.9328 25.0477 30.5422 25.0952 30.7994 25.2232L30.9615 24.7088ZM33.6902 23.6997H33.1552V25.0062C32.5995 24.2689 31.1309 24.6613 31.1309 25.9471C31.1309 27.2609 32.6543 27.6119 33.1552 26.888V27.2H33.6902V23.6997ZM34.2058 18.6151V18.9271H34.2594V18.6151H34.3874V18.5615H34.0754V18.6151H34.2058ZM34.6518 26.9964C34.6518 26.9623 34.6518 26.9221 34.6323 26.888C34.6116 26.8673 34.5982 26.8343 34.5787 26.8136C34.5592 26.7929 34.5251 26.7795 34.5044 26.76C34.4702 26.76 34.43 26.7393 34.3959 26.7393C34.3752 26.7393 34.3423 26.76 34.3008 26.76C34.2739 26.7747 34.2489 26.7927 34.2265 26.8136C34.1924 26.8331 34.1729 26.8673 34.1729 26.888C34.1522 26.9221 34.1522 26.9623 34.1522 26.9964C34.1522 27.0172 34.1522 27.0501 34.1729 27.0915C34.1729 27.1122 34.1936 27.1451 34.2265 27.1658C34.2477 27.1883 34.2729 27.2065 34.3008 27.2195C34.335 27.239 34.3752 27.239 34.3959 27.239C34.43 27.239 34.4702 27.239 34.5044 27.2195C34.5251 27.1988 34.558 27.1853 34.5787 27.1658C34.5994 27.1463 34.6128 27.1122 34.6323 27.0915C34.6518 27.0513 34.6518 27.0172 34.6518 26.9964ZM34.8688 18.5542H34.7737L34.6652 18.7906L34.5568 18.5542H34.4617V18.9198H34.5153V18.6419L34.6238 18.8783H34.6982L34.7932 18.6419V18.9198H34.8676L34.8688 18.5542ZM35.1662 13.1027C35.1662 7.9425 30.9615 3.73903 25.7891 3.73903C23.947 3.74401 22.1465 4.28753 20.6094 5.30269C25.4917 9.31847 25.5661 16.9149 20.6094 20.91C22.1459 21.9265 23.9468 22.4701 25.7891 22.4737C30.9615 22.481 35.1662 18.2824 35.1662 13.1027Z" fill="#474747"/>
</svg>
