<svg width="66" height="66" viewBox="0 0 66 66" fill="none" xmlns="http://www.w3.org/2000/svg">
<path d="M25.6667 24.75L33 21.0833L40.3333 24.75V7.33333H25.6667V24.75ZM14.6667 51.3333V44H33V51.3333H14.6667ZM7.33333 66C5.31667 66 3.59028 65.2819 2.15417 63.8458C0.718056 62.4097 0 60.6833 0 58.6667V7.33333C0 5.31667 0.718056 3.59028 2.15417 2.15417C3.59028 0.718056 5.31667 0 7.33333 0H58.6667C60.6833 0 62.4097 0.718056 63.8458 2.15417C65.2819 3.59028 66 5.31667 66 7.33333V58.6667C66 60.6833 65.2819 62.4097 63.8458 63.8458C62.4097 65.2819 60.6833 66 58.6667 66H7.33333ZM7.33333 58.6667H58.6667V7.33333H47.6667V36.6667L33 29.3333L18.3333 36.6667V7.33333H7.33333V58.6667Z" fill="#067CB7"/>
</svg>
