<svg width="60" height="44" viewBox="0 0 60 44" fill="none" xmlns="http://www.w3.org/2000/svg">
<path d="M35.3333 24.668C33.1111 24.668 31.2222 23.8902 29.6666 22.3346C28.1111 20.7791 27.3333 18.8902 27.3333 16.668C27.3333 14.4457 28.1111 12.5569 29.6666 11.0013C31.2222 9.44575 33.1111 8.66797 35.3333 8.66797C37.5555 8.66797 39.4444 9.44575 41 11.0013C42.5555 12.5569 43.3333 14.4457 43.3333 16.668C43.3333 18.8902 42.5555 20.7791 41 22.3346C39.4444 23.8902 37.5555 24.668 35.3333 24.668ZM16.6666 32.668C15.2 32.668 13.9444 32.1457 12.9 31.1013C11.8555 30.0569 11.3333 28.8013 11.3333 27.3346V6.0013C11.3333 4.53464 11.8555 3.27908 12.9 2.23464C13.9444 1.19019 15.2 0.667969 16.6666 0.667969H54C55.4666 0.667969 56.7222 1.19019 57.7666 2.23464C58.8111 3.27908 59.3333 4.53464 59.3333 6.0013V27.3346C59.3333 28.8013 58.8111 30.0569 57.7666 31.1013C56.7222 32.1457 55.4666 32.668 54 32.668H16.6666ZM22 27.3346H48.6666C48.6666 25.868 49.1888 24.6124 50.2333 23.568C51.2777 22.5235 52.5333 22.0013 54 22.0013V11.3346C52.5333 11.3346 51.2777 10.8124 50.2333 9.76797C49.1888 8.72352 48.6666 7.46797 48.6666 6.0013H22C22 7.46797 21.4777 8.72352 20.4333 9.76797C19.3888 10.8124 18.1333 11.3346 16.6666 11.3346V22.0013C18.1333 22.0013 19.3888 22.5235 20.4333 23.568C21.4777 24.6124 22 25.868 22 27.3346ZM51.3333 43.3346H5.99996C4.53329 43.3346 3.27774 42.8124 2.23329 41.768C1.18885 40.7235 0.666626 39.468 0.666626 38.0013V8.66797H5.99996V38.0013H51.3333V43.3346Z" fill="#474747"/>
</svg>
