<svg width="46" height="31" viewBox="0 0 46 31" fill="none" xmlns="http://www.w3.org/2000/svg">
<path d="M42.4667 30.6668H3.03333C2.22884 30.6668 1.4573 30.3472 0.888443 29.7784C0.319582 29.2095 0 28.438 0 27.6335L0 3.36683C0 2.56234 0.319582 1.7908 0.888443 1.22194C1.4573 0.653079 2.22884 0.333496 3.03333 0.333496L42.4667 0.333496C43.2712 0.333496 44.0427 0.653079 44.6116 1.22194C45.1804 1.7908 45.5 2.56234 45.5 3.36683V27.6335C45.5 28.438 45.1804 29.2095 44.6116 29.7784C44.0427 30.3472 43.2712 30.6668 42.4667 30.6668ZM17.7349 13.3831C17.7002 13.3832 17.666 13.3913 17.6349 13.4066C17.6038 13.4219 17.5766 13.4442 17.5554 13.4716C17.5056 13.5223 17.4771 13.5902 17.4758 13.6612C17.4758 13.6877 17.5997 14.0656 17.8651 14.8404L18.4389 16.5163L18.7056 17.2974C19.0047 18.1737 19.161 18.6397 19.1745 18.6953C18.5862 19.4239 18.0542 20.1963 17.5832 21.0057L17.5352 21.0941L17.5327 21.1257C17.5327 21.2521 17.635 21.3558 17.7627 21.3558L17.7968 21.3532H17.7956H19.335C19.4066 21.3522 19.4769 21.3333 19.5393 21.2982C19.6018 21.2631 19.6545 21.2129 19.6927 21.1523L19.6939 21.151L24.7899 13.7964C24.8169 13.7613 24.8315 13.7182 24.8316 13.6738L24.8304 13.6549V13.6561C24.829 13.5851 24.8005 13.5173 24.7507 13.4666C24.7297 13.4393 24.7027 13.4171 24.6718 13.4018C24.6409 13.3865 24.607 13.3784 24.5725 13.3781H23.0318C22.96 13.3789 22.8895 13.3977 22.8268 13.4328C22.7641 13.4679 22.7112 13.5182 22.6729 13.5791L22.6716 13.5803L20.5483 16.6971L19.6699 13.6991C19.6474 13.6078 19.595 13.5266 19.521 13.4684C19.447 13.4102 19.3558 13.3785 19.2617 13.3781L19.2288 13.3794H19.2301L17.7349 13.3831ZM35.4015 13.2429H35.3687C34.4106 13.2429 33.5499 13.6587 32.9559 14.3184L32.9534 14.321C32.3041 14.9932 31.9416 15.8914 31.9423 16.826V16.8601V16.8588C31.9406 16.8968 31.9397 16.938 31.9397 16.9827C31.9397 17.6614 32.2039 18.2795 32.6336 18.7382L32.6323 18.737C32.8767 18.9752 33.1676 19.1604 33.4869 19.2808C33.8062 19.4013 34.1469 19.4546 34.4877 19.4372H34.4814C34.9073 19.4321 35.3118 19.3449 35.6808 19.1882L35.6606 19.1958C36.0335 19.0555 36.3494 18.8368 36.5984 18.5588L36.601 18.5562C36.5883 18.627 36.574 18.6906 36.558 18.7471L36.5605 18.7345C36.5395 18.8122 36.526 18.8918 36.5201 18.9721V18.9746C36.5201 19.1869 36.6069 19.2935 36.7804 19.2944H38.1593C38.2132 19.2992 38.2674 19.2932 38.3189 19.2767C38.3704 19.2602 38.4181 19.2335 38.4591 19.1983C38.5001 19.1631 38.5336 19.12 38.5577 19.0716C38.5817 19.0232 38.5958 18.9704 38.5992 18.9165V18.9152L39.4182 13.6991C39.4258 13.6598 39.4244 13.6192 39.4141 13.5805C39.4038 13.5417 39.3849 13.5058 39.3588 13.4754C39.3356 13.4445 39.3057 13.4194 39.2713 13.4018C39.2369 13.3843 39.1989 13.3749 39.1603 13.3743H37.6399C37.4541 13.3743 37.3365 13.5955 37.2986 14.0341C37.0761 13.7487 36.7835 13.5258 36.4493 13.3869C36.1151 13.248 35.7507 13.198 35.3914 13.2416L35.4015 13.2403V13.2429ZM12.6983 13.2429H12.6629C11.7061 13.2429 10.8454 13.6587 10.2539 14.3184L10.2514 14.321C9.60216 14.9932 9.2396 15.8914 9.24029 16.826V16.8601V16.8588C9.22326 17.2024 9.27583 17.5459 9.39485 17.8686C9.51387 18.1914 9.69688 18.4867 9.9329 18.737L9.93164 18.7357C10.3791 19.1705 10.9908 19.4384 11.6657 19.4384L11.787 19.4359H11.7807C12.2003 19.4296 12.5984 19.3424 12.9612 19.1869L12.941 19.1945C13.3189 19.0504 13.6399 18.833 13.899 18.5562L13.9002 18.555C13.8535 18.6788 13.8244 18.8229 13.8206 18.9721V18.9746C13.8215 19.1869 13.9083 19.2935 14.081 19.2944H15.4586C15.5125 19.2992 15.5667 19.2932 15.6182 19.2767C15.6697 19.2602 15.7173 19.2335 15.7584 19.1983C15.7994 19.1631 15.8329 19.12 15.8569 19.0716C15.881 19.0232 15.8951 18.9704 15.8985 18.9165V18.9152L16.7187 13.6991C16.7258 13.6601 16.724 13.6199 16.7135 13.5816C16.703 13.5434 16.6841 13.5079 16.6581 13.4779C16.6349 13.4471 16.605 13.4219 16.5706 13.4044C16.5362 13.3868 16.4982 13.3774 16.4596 13.3768H14.9392C14.7534 13.3768 14.6358 13.598 14.5992 14.0366C14.3742 13.7536 14.0811 13.5323 13.7473 13.3935C13.4136 13.2547 13.05 13.2028 12.6907 13.2429L12.7008 13.2416L12.6983 13.2429ZM41.2179 10.4446L41.1977 10.4433C41.1374 10.4431 41.0792 10.4656 41.0347 10.5064C40.9902 10.5471 40.9627 10.6031 40.9576 10.6633L39.6583 18.9784C39.6476 19.0184 39.6475 19.0605 39.6579 19.1006C39.6683 19.1407 39.6889 19.1774 39.7177 19.2071C39.7416 19.2355 39.7714 19.2582 39.805 19.2737C39.8387 19.2892 39.8753 19.2971 39.9123 19.2969H41.2394L41.2799 19.2994C41.3804 19.2994 41.4769 19.2595 41.548 19.1884C41.6191 19.1172 41.659 19.0208 41.659 18.9202V18.9177L42.9558 10.7467L42.9571 10.7189C42.9572 10.6468 42.9337 10.5766 42.8901 10.5192V10.5204C42.8436 10.4723 42.78 10.4446 42.7131 10.4433L42.6942 10.4446H41.2179ZM26.4684 10.4446C26.4142 10.4379 26.3592 10.4426 26.3069 10.4584C26.2547 10.4741 26.2063 10.5007 26.1648 10.5363C26.1234 10.5718 26.0899 10.6157 26.0664 10.665C26.043 10.7143 26.0301 10.7679 26.0285 10.8225L24.7305 18.9771C24.7235 19.0159 24.7251 19.0557 24.7354 19.0938C24.7457 19.1318 24.7643 19.1671 24.7899 19.197C24.8122 19.2285 24.8418 19.2541 24.8761 19.2717C24.9105 19.2893 24.9485 19.2984 24.9871 19.2981H26.6365C26.7107 19.2988 26.7827 19.2734 26.84 19.2262C26.8974 19.1791 26.9363 19.1133 26.9499 19.0403V19.0378L27.3101 16.7198C27.315 16.6695 27.33 16.6206 27.3541 16.5761C27.3782 16.5316 27.4109 16.4924 27.4504 16.4607C27.5371 16.3918 27.6417 16.3469 27.7512 16.3305H27.755C27.8574 16.3116 27.9749 16.3015 28.095 16.3002C28.2012 16.3002 28.3288 16.3069 28.4754 16.3204C28.6357 16.3391 28.7969 16.3476 28.9582 16.3457C29.8842 16.3472 30.7765 15.9982 31.4557 15.3687L31.4531 15.3712C31.7918 15.0121 32.0533 14.5874 32.2216 14.1233C32.3898 13.6592 32.4612 13.1656 32.4314 12.6728V12.683C32.4586 12.3571 32.4027 12.0297 32.269 11.7313C32.1353 11.4329 31.9281 11.1733 31.6667 10.9767L31.6617 10.9729C31.0586 10.5915 30.3521 10.4065 29.6395 10.4433H29.647L26.4684 10.4446ZM3.74111 10.4446C3.68824 10.4389 3.63477 10.4444 3.58417 10.4608C3.53356 10.4771 3.48696 10.5039 3.44739 10.5394C3.40782 10.575 3.37616 10.6184 3.35447 10.667C3.33279 10.7155 3.32155 10.7681 3.3215 10.8212V10.8238L2.02222 18.9784C2.01518 19.0172 2.01686 19.057 2.02713 19.095C2.03741 19.1331 2.05602 19.1684 2.08162 19.1983C2.10395 19.2297 2.13353 19.2554 2.16785 19.273C2.20217 19.2906 2.24022 19.2996 2.27879 19.2994H3.80051C3.8547 19.3061 3.90969 19.3014 3.96196 19.2857C4.01422 19.2699 4.06262 19.2433 4.10403 19.2078C4.14544 19.1722 4.17896 19.1283 4.20244 19.079C4.22591 19.0297 4.23882 18.9761 4.24035 18.9215L4.60056 16.7236C4.60531 16.6733 4.62006 16.6245 4.64393 16.58C4.6678 16.5355 4.70033 16.4963 4.73958 16.4645C4.8263 16.3956 4.93086 16.3507 5.04039 16.3343H5.04418C5.15604 16.3147 5.26934 16.3046 5.3829 16.304H5.38417C5.49033 16.304 5.61672 16.3107 5.76333 16.3242C5.92315 16.3429 6.08399 16.3513 6.24487 16.3495C7.20922 16.3495 8.08636 15.9792 8.74358 15.3725L8.74106 15.375C9.07973 15.0159 9.34124 14.5912 9.50949 14.1271C9.67774 13.663 9.74914 13.1694 9.71931 12.6766V12.6867C9.74651 12.3609 9.69063 12.0335 9.55691 11.7351C9.42318 11.4367 9.21597 11.1771 8.95465 10.9805L8.9496 10.9767C8.34915 10.5967 7.646 10.4113 6.93622 10.4459H6.94381L3.74111 10.4446ZM35.3181 17.8194L35.2574 17.8207C34.9345 17.821 34.6219 17.7068 34.3752 17.4984L34.3778 17.4996C34.2645 17.3939 34.174 17.2662 34.1118 17.1243C34.0497 16.9824 34.0172 16.8292 34.0163 16.6743L34.0176 16.6174V16.5833C34.0176 16.1106 34.2084 15.6822 34.5181 15.3712C34.8227 15.0591 35.2473 14.8657 35.7175 14.8657H35.7592H35.7567L35.7997 14.8644C36.1396 14.8644 36.4493 14.9896 36.6869 15.1956L36.6856 15.1943C36.8028 15.3031 36.8963 15.4349 36.9602 15.5815C37.0242 15.7281 37.0572 15.8863 37.0572 16.0462L37.056 16.1068V16.1043V16.1346C37.056 16.601 36.8626 17.0231 36.5504 17.3227C36.3928 17.4798 36.2057 17.6044 35.9999 17.6892C35.7941 17.774 35.5736 17.8174 35.351 17.8169H35.3194L35.3181 17.8194ZM12.5947 17.8194L12.5315 17.8207C12.2003 17.8207 11.8957 17.6993 11.6632 17.4984L11.6644 17.4996C11.5533 17.3934 11.4649 17.2657 11.4045 17.1242C11.3441 16.9828 11.313 16.8306 11.3131 16.6768L11.3143 16.6174V16.5833C11.3143 16.1106 11.5052 15.6822 11.8148 15.3712C12.1194 15.0591 12.5428 14.8657 13.013 14.8657H13.0572H13.0547L13.0977 14.8644C13.4377 14.8644 13.7473 14.9896 13.9849 15.1956L13.9837 15.1943C14.1005 15.3031 14.1936 15.4347 14.2573 15.5811C14.321 15.7274 14.3539 15.8853 14.354 16.0449L14.3527 16.1068V16.1043V16.1485C14.3527 16.6149 14.1593 17.0345 13.8472 17.3341C13.5235 17.6463 13.0911 17.8203 12.6414 17.8194H12.5947ZM27.6438 14.5838L27.9838 12.4466C27.9865 12.4151 27.9953 12.3845 28.0099 12.3565C28.0245 12.3285 28.0444 12.3036 28.0686 12.2833C28.0928 12.263 28.1207 12.2476 28.1508 12.2381C28.181 12.2286 28.2127 12.2252 28.2441 12.228H28.6031L28.6802 12.2267C28.8992 12.2267 29.1145 12.2414 29.326 12.2709L29.302 12.2684C29.4979 12.3038 29.6685 12.3923 29.8025 12.5186C29.8794 12.5903 29.9406 12.6772 29.9822 12.7738C30.0238 12.8705 30.0448 12.9747 30.0439 13.0798L30.0426 13.1278V13.1253C30.0694 13.3365 30.0435 13.551 29.9672 13.7497C29.8909 13.9484 29.7666 14.1251 29.6053 14.2641L29.6041 14.2653C29.2013 14.4951 28.7396 14.6007 28.277 14.5687H28.2846L27.6463 14.5889L27.6438 14.5838ZM4.92032 14.5838L5.26031 12.4466C5.26301 12.4151 5.27189 12.3845 5.28645 12.3565C5.301 12.3285 5.32094 12.3036 5.34513 12.2833C5.36931 12.263 5.39727 12.2476 5.42739 12.2381C5.45751 12.2286 5.48921 12.2252 5.52067 12.228H5.89857C6.3032 12.1986 6.70819 12.2799 7.07019 12.463L7.05756 12.4567C7.29685 12.6109 7.3769 12.9336 7.29769 13.4249C7.29201 13.608 7.24216 13.7871 7.15238 13.9469C7.06259 14.1066 6.93554 14.2423 6.78203 14.3424L6.77824 14.345C6.17946 14.5667 5.53777 14.648 4.90262 14.5826L4.92032 14.5838Z" fill="#474747"/>
</svg>
