<svg width="20" height="22" viewBox="0 0 20 22" fill="none" xmlns="http://www.w3.org/2000/svg">
<path fill-rule="evenodd" clip-rule="evenodd" d="M10 0C4.477 0 0 4.477 0 10C0 15.523 4.477 20 10 20C15.523 20 20 15.523 20 10C20 4.477 15.523 0 10 0ZM2 10C2.00032 8.33502 2.52012 6.71163 3.48694 5.35612C4.45376 4.00061 5.81942 2.98053 7.39355 2.43807C8.96768 1.89561 10.6718 1.8578 12.2685 2.32992C13.8651 2.80204 15.2747 3.76056 16.3006 5.07186C17.3266 6.38316 17.9179 7.9819 17.9921 9.64523C18.0662 11.3086 17.6196 12.9536 16.7144 14.351C15.8091 15.7484 14.4905 16.8285 12.9422 17.4409C11.3939 18.0532 9.69316 18.1672 8.077 17.767L8.795 14.393C9.482 14.989 10.335 15.216 11.154 15.201C12.052 15.184 12.954 14.881 13.709 14.406C14.461 13.933 15.133 13.246 15.501 12.399C15.8988 11.4859 16.063 10.4882 15.9788 9.49578C15.8947 8.50338 15.5648 7.54754 15.019 6.71447C14.4731 5.88139 13.7285 5.1973 12.8523 4.72389C11.976 4.25048 10.9957 4.00264 9.99974 4.00273C9.00378 4.00282 8.0235 4.25084 7.14734 4.72441C6.27117 5.19798 5.52667 5.88221 4.98099 6.71538C4.43531 7.54855 4.10562 8.50445 4.02165 9.49687C3.93767 10.4893 4.10207 11.487 4.5 12.4C4.54979 12.5243 4.62404 12.6373 4.71835 12.7324C4.81266 12.8275 4.92509 12.9026 5.049 12.9534C5.1729 13.0042 5.30574 13.0296 5.43964 13.0281C5.57354 13.0266 5.70577 12.9982 5.82848 12.9446C5.9512 12.891 6.06191 12.8133 6.15403 12.7161C6.24616 12.6189 6.31783 12.5043 6.36479 12.3788C6.41175 12.2534 6.43304 12.1199 6.42741 11.9861C6.42178 11.8523 6.38933 11.721 6.332 11.6C6.09497 11.0551 5.98232 10.4642 6.00225 9.8703C6.02218 9.27639 6.17419 8.69439 6.44722 8.16659C6.72025 7.6388 7.10745 7.17846 7.58067 6.81905C8.0539 6.45963 8.60125 6.21017 9.18296 6.08879C9.76467 5.96741 10.3661 5.97717 10.9436 6.11734C11.5211 6.25752 12.06 6.5246 12.5213 6.89917C12.9827 7.27374 13.3547 7.74639 13.6105 8.28276C13.8663 8.81914 13.9993 9.40576 14 10C14 11.095 13.59 12.117 12.643 12.713C12.155 13.021 11.604 13.193 11.117 13.201C10.64 13.211 10.275 13.067 10.022 12.802C9.774 12.542 9.501 12.04 9.501 11.1C9.501 10.5 9.73 10 10.004 8.708C10.0337 8.5787 10.0373 8.44479 10.0147 8.31407C9.99207 8.18336 9.94368 8.05844 9.87233 7.94661C9.80098 7.83477 9.70809 7.73825 9.59907 7.66267C9.49005 7.58708 9.36708 7.53395 9.23733 7.50635C9.10757 7.47875 8.97362 7.47725 8.84328 7.50193C8.71294 7.5266 8.58881 7.57697 8.47812 7.65009C8.36743 7.72321 8.2724 7.81762 8.19856 7.92782C8.12471 8.03803 8.07353 8.16182 8.048 8.292L6.188 17.035C4.92101 16.3483 3.86304 15.3321 3.12587 14.0938C2.3887 12.8555 1.99971 11.4411 2 10Z" fill="#474747"/>
</svg>
