<svg width="54" height="60" viewBox="0 0 54 60" fill="none" xmlns="http://www.w3.org/2000/svg">
<path d="M6.8703 59.4281H47.266L54 47.1297L26.9305 0L0 47.0615L6.8703 59.4281ZM9.96194 57.2279L16.8322 49.2589H17.7265L24.4605 57.0916L9.96194 57.2279ZM26.7233 56.9526L20.4037 49.2589C20.4037 49.2589 33.659 49.3298 33.7326 49.2589L27.274 56.9526H26.7233ZM29.6105 57.1598L36.4126 49.2589H37.375L44.109 57.1598H29.6105ZM46.3718 56.5409L40.1885 49.4634H50.494L46.3718 56.5409ZM26.9986 17.1076L43.0048 45.0686H36.6143L27.0641 28.5117L20.8126 39.0925H14.4931L26.9986 17.1076ZM7.82997 56.68L3.57147 49.2589L14.0132 49.1908L7.82997 56.68Z" fill="#474747"/>
</svg>
