<svg width="99" height="108" viewBox="0 0 99 108" fill="none" xmlns="http://www.w3.org/2000/svg">
<path d="M12.4856 108H85.8976L98.1354 85.6499L48.9414 0L0 85.526L12.4856 108ZM18.1041 104.002L30.5896 89.5194H32.2147L44.4525 103.754L18.1041 104.002ZM48.5648 103.501L37.0801 89.5194C37.0801 89.5194 61.1693 89.6482 61.3031 89.5194L49.5657 103.501H48.5648ZM53.8118 103.878L66.1734 89.5194H67.9224L80.1602 103.878H53.8118ZM84.2725 102.753L73.0355 89.891H91.7638L84.2725 102.753ZM49.0653 31.09L78.1536 81.9042H66.5401L49.1842 51.815L37.8233 71.0438H26.3386L49.0653 31.09ZM14.2296 103.006L6.49052 89.5194L25.4666 89.3955L14.2296 103.006Z" fill="#067CB7"/>
</svg>
