<svg width="36" height="37" viewBox="0 0 36 37" fill="none" xmlns="http://www.w3.org/2000/svg">
<mask id="mask0_1584_4865" style="mask-type:alpha" maskUnits="userSpaceOnUse" x="0" y="0" width="36" height="37">
<rect x="0.5" y="0.75" width="35.5" height="35.5" fill="#D9D9D9"/>
</mask>
<g mask="url(#mask0_1584_4865)">
<path d="M18.25 33.2918C14.8233 32.429 11.9944 30.4629 9.76329 27.3937C7.53221 24.3244 6.41667 20.9161 6.41667 17.1689V8.146L18.25 3.7085L30.0833 8.146V17.1689C30.0833 20.9161 28.9678 24.3244 26.7367 27.3937C24.5056 30.4629 21.6767 32.429 18.25 33.2918ZM18.25 30.1856C20.8139 29.372 22.934 27.745 24.6104 25.3043C26.2868 22.8637 27.125 20.1519 27.125 17.1689V10.1799L18.25 6.85173L9.37501 10.1799V17.1689C9.37501 20.1519 10.2132 22.8637 11.8896 25.3043C13.566 27.745 15.6861 29.372 18.25 30.1856ZM15.2917 24.4168H21.2083C21.6274 24.4168 21.9787 24.2751 22.2622 23.9916C22.5458 23.7081 22.6875 23.3568 22.6875 22.9377V18.5002C22.6875 18.0811 22.5458 17.7298 22.2622 17.4463C21.9787 17.1628 21.6274 17.021 21.2083 17.021V15.5418C21.2083 14.7283 20.9187 14.0318 20.3393 13.4525C19.76 12.8732 19.0635 12.5835 18.25 12.5835C17.4365 12.5835 16.74 12.8732 16.1607 13.4525C15.5813 14.0318 15.2917 14.7283 15.2917 15.5418V17.021C14.8726 17.021 14.5213 17.1628 14.2378 17.4463C13.9543 17.7298 13.8125 18.0811 13.8125 18.5002V22.9377C13.8125 23.3568 13.9543 23.7081 14.2378 23.9916C14.5213 24.2751 14.8726 24.4168 15.2917 24.4168ZM16.7708 17.021V15.5418C16.7708 15.1227 16.9126 14.7714 17.1961 14.4879C17.4796 14.2044 17.8309 14.0627 18.25 14.0627C18.6691 14.0627 19.0204 14.2044 19.3039 14.4879C19.5874 14.7714 19.7292 15.1227 19.7292 15.5418V17.021H16.7708Z" fill="#474747"/>
</g>
</svg>
