<svg width="60" height="74" viewBox="0 0 60 74" fill="none" xmlns="http://www.w3.org/2000/svg">
<path d="M30 73.6668C21.5056 71.5279 14.4931 66.6543 8.96252 59.046C3.43197 51.4377 0.666687 42.9891 0.666687 33.7002V11.3335L30 0.333496L59.3334 11.3335V33.7002C59.3334 42.9891 56.5681 51.4377 51.0375 59.046C45.507 66.6543 38.4945 71.5279 30 73.6668ZM30 65.9668C36.3556 63.9502 41.6111 59.9168 45.7667 53.8668C49.9222 47.8168 52 41.0946 52 33.7002V16.3752L30 8.12516L8.00002 16.3752V33.7002C8.00002 41.0946 10.0778 47.8168 14.2334 53.8668C18.3889 59.9168 23.6445 63.9502 30 65.9668ZM22.6667 51.6668H37.3334C38.3722 51.6668 39.2431 51.3154 39.9459 50.6127C40.6486 49.9099 41 49.0391 41 48.0002V37.0002C41 35.9613 40.6486 35.0904 39.9459 34.3877C39.2431 33.6849 38.3722 33.3335 37.3334 33.3335V29.6668C37.3334 27.6502 36.6153 25.9238 35.1792 24.4877C33.7431 23.0516 32.0167 22.3335 30 22.3335C27.9834 22.3335 26.257 23.0516 24.8209 24.4877C23.3847 25.9238 22.6667 27.6502 22.6667 29.6668V33.3335C21.6278 33.3335 20.757 33.6849 20.0542 34.3877C19.3514 35.0904 19 35.9613 19 37.0002V48.0002C19 49.0391 19.3514 49.9099 20.0542 50.6127C20.757 51.3154 21.6278 51.6668 22.6667 51.6668ZM26.3334 33.3335V29.6668C26.3334 28.6279 26.6847 27.7571 27.3875 27.0543C28.0903 26.3516 28.9611 26.0002 30 26.0002C31.0389 26.0002 31.9097 26.3516 32.6125 27.0543C33.3153 27.7571 33.6667 28.6279 33.6667 29.6668V33.3335H26.3334Z" fill="#067CB7"/>
</svg>
