<svg width="54" height="54" viewBox="0 0 54 54" fill="none" xmlns="http://www.w3.org/2000/svg">
<path d="M16.1666 53.6673C14.7 53.6673 13.4444 53.1451 12.4 52.1007C11.3555 51.0562 10.8333 49.8007 10.8333 48.334C10.8333 46.8673 11.3555 45.6118 12.4 44.5673C13.4444 43.5229 14.7 43.0007 16.1666 43.0007C17.6333 43.0007 18.8888 43.5229 19.9333 44.5673C20.9777 45.6118 21.5 46.8673 21.5 48.334C21.5 49.8007 20.9777 51.0562 19.9333 52.1007C18.8888 53.1451 17.6333 53.6673 16.1666 53.6673ZM42.8333 53.6673C41.3666 53.6673 40.1111 53.1451 39.0666 52.1007C38.0222 51.0562 37.5 49.8007 37.5 48.334C37.5 46.8673 38.0222 45.6118 39.0666 44.5673C40.1111 43.5229 41.3666 43.0007 42.8333 43.0007C44.3 43.0007 45.5555 43.5229 46.6 44.5673C47.6444 45.6118 48.1666 46.8673 48.1666 48.334C48.1666 49.8007 47.6444 51.0562 46.6 52.1007C45.5555 53.1451 44.3 53.6673 42.8333 53.6673ZM13.9 11.0007L20.3 24.334H38.9666L46.3 11.0007H13.9ZM11.3666 5.66732H50.7C51.7222 5.66732 52.5 6.12287 53.0333 7.03398C53.5666 7.9451 53.5889 8.86732 53.1 9.80065L43.6333 26.8673C43.1444 27.7562 42.4888 28.4451 41.6666 28.934C40.8444 29.4229 39.9444 29.6673 38.9666 29.6673H19.1L16.1666 35.0007H48.1666V40.334H16.1666C14.1666 40.334 12.6555 39.4562 11.6333 37.7007C10.6111 35.9451 10.5666 34.2007 11.5 32.4673L15.1 25.934L5.49996 5.66732H0.166626V0.333984H8.83329L11.3666 5.66732Z" fill="#474747"/>
</svg>
