<svg width="18" height="22" viewBox="0 0 18 22" fill="none" xmlns="http://www.w3.org/2000/svg">
<path d="M2 21.5C1.45 21.5 0.979167 21.3042 0.5875 20.9125C0.195833 20.5208 0 20.05 0 19.5V7.5C0 6.95 0.195833 6.47917 0.5875 6.0875C0.979167 5.69583 1.45 5.5 2 5.5H4C4 4.11667 4.4875 2.9375 5.4625 1.9625C6.4375 0.9875 7.61667 0.5 9 0.5C10.3833 0.5 11.5625 0.9875 12.5375 1.9625C13.5125 2.9375 14 4.11667 14 5.5H16C16.55 5.5 17.0208 5.69583 17.4125 6.0875C17.8042 6.47917 18 6.95 18 7.5V19.5C18 20.05 17.8042 20.5208 17.4125 20.9125C17.0208 21.3042 16.55 21.5 16 21.5H2ZM2 19.5H16V7.5H2V19.5ZM9 13.5C10.3833 13.5 11.5625 13.0125 12.5375 12.0375C13.5125 11.0625 14 9.88333 14 8.5H12C12 9.33333 11.7083 10.0417 11.125 10.625C10.5417 11.2083 9.83333 11.5 9 11.5C8.16667 11.5 7.45833 11.2083 6.875 10.625C6.29167 10.0417 6 9.33333 6 8.5H4C4 9.88333 4.4875 11.0625 5.4625 12.0375C6.4375 13.0125 7.61667 13.5 9 13.5ZM6 5.5H12C12 4.66667 11.7083 3.95833 11.125 3.375C10.5417 2.79167 9.83333 2.5 9 2.5C8.16667 2.5 7.45833 2.79167 6.875 3.375C6.29167 3.95833 6 4.66667 6 5.5Z" fill="#474747"/>
</svg>
