<svg width="28" height="35" viewBox="0 0 28 35" fill="none" xmlns="http://www.w3.org/2000/svg">
<path d="M14 17.5C14.9167 17.5 15.7014 17.1736 16.3542 16.5208C17.007 15.868 17.3334 15.0833 17.3334 14.1666C17.3334 13.25 17.007 12.4653 16.3542 11.8125C15.7014 11.1597 14.9167 10.8333 14 10.8333C13.0834 10.8333 12.2986 11.1597 11.6459 11.8125C10.9931 12.4653 10.6667 13.25 10.6667 14.1666C10.6667 15.0833 10.9931 15.868 11.6459 16.5208C12.2986 17.1736 13.0834 17.5 14 17.5ZM14 29.75C17.3889 26.6389 19.9028 23.8125 21.5417 21.2708C23.1806 18.7291 24 16.4722 24 14.5C24 11.4722 23.0347 8.99304 21.1042 7.06248C19.1736 5.13192 16.8056 4.16665 14 4.16665C11.1945 4.16665 8.82641 5.13192 6.89585 7.06248C4.9653 8.99304 4.00002 11.4722 4.00002 14.5C4.00002 16.4722 4.81947 18.7291 6.45835 21.2708C8.09724 23.8125 10.6111 26.6389 14 29.75ZM14 34.1666C9.5278 30.3611 6.18752 26.8264 3.97919 23.5625C1.77085 20.2986 0.666687 17.2778 0.666687 14.5C0.666687 10.3333 2.00696 7.01387 4.68752 4.54165C7.36808 2.06942 10.4722 0.833313 14 0.833313C17.5278 0.833313 20.632 2.06942 23.3125 4.54165C25.9931 7.01387 27.3334 10.3333 27.3334 14.5C27.3334 17.2778 26.2292 20.2986 24.0209 23.5625C21.8125 26.8264 18.4722 30.3611 14 34.1666Z" fill="#474747"/>
</svg>
