<svg width="81" height="44" viewBox="0 0 81 44" fill="none" xmlns="http://www.w3.org/2000/svg">
<path d="M7.49996 44C5.48329 44 3.7569 43.2819 2.32079 41.8458C0.884682 40.4097 0.166626 38.6833 0.166626 36.6667C0.166626 34.65 0.884682 32.9236 2.32079 31.4875C3.7569 30.0514 5.48329 29.3333 7.49996 29.3333H8.46246C8.73746 29.3333 9.02774 29.3944 9.33329 29.5167L26.0166 12.8333C25.8944 12.5278 25.8333 12.2375 25.8333 11.9625V11C25.8333 8.98333 26.5513 7.25694 27.9875 5.82083C29.4236 4.38472 31.15 3.66667 33.1666 3.66667C35.1833 3.66667 36.9097 4.38472 38.3458 5.82083C39.7819 7.25694 40.5 8.98333 40.5 11C40.5 11.1222 40.4388 11.7333 40.3166 12.8333L49.6666 22.1833C49.9722 22.0611 50.2625 22 50.5375 22H52.4625C52.7375 22 53.0277 22.0611 53.3333 22.1833L66.35 9.16667C66.2277 8.86111 66.1666 8.57083 66.1666 8.29583V7.33333C66.1666 5.31667 66.8847 3.59028 68.3208 2.15417C69.7569 0.718056 71.4833 0 73.5 0C75.5166 0 77.243 0.718056 78.6791 2.15417C80.1152 3.59028 80.8333 5.31667 80.8333 7.33333C80.8333 9.35 80.1152 11.0764 78.6791 12.5125C77.243 13.9486 75.5166 14.6667 73.5 14.6667H72.5375C72.2625 14.6667 71.9722 14.6056 71.6666 14.4833L58.65 27.5C58.7722 27.8056 58.8333 28.0958 58.8333 28.3708V29.3333C58.8333 31.35 58.1152 33.0764 56.6791 34.5125C55.243 35.9486 53.5166 36.6667 51.5 36.6667C49.4833 36.6667 47.7569 35.9486 46.3208 34.5125C44.8847 33.0764 44.1666 31.35 44.1666 29.3333V28.3708C44.1666 28.0958 44.2277 27.8056 44.35 27.5L35 18.15C34.6944 18.2722 34.4041 18.3333 34.1291 18.3333H33.1666C33.0444 18.3333 32.4333 18.2722 31.3333 18.15L14.65 34.8333C14.7722 35.1389 14.8333 35.4292 14.8333 35.7042V36.6667C14.8333 38.6833 14.1152 40.4097 12.6791 41.8458C11.243 43.2819 9.51663 44 7.49996 44Z" fill="#067CB7"/>
</svg>
