<svg width="40" height="31" viewBox="0 0 40 31" fill="none" xmlns="http://www.w3.org/2000/svg">
<path d="M32.3297 13.8278C32.3297 13.8278 32.8443 16.3465 32.9594 16.8746H30.6979C30.9214 16.272 31.7813 13.9293 31.7813 13.9293C31.7677 13.9496 32.0047 13.3132 32.1401 12.9205L32.3297 13.8278ZM39.5 3.5835V27.4168C39.5 29.2111 38.0443 30.6668 36.25 30.6668H3.75C1.95573 30.6668 0.5 29.2111 0.5 27.4168V3.5835C0.5 1.78923 1.95573 0.333496 3.75 0.333496H36.25C38.0443 0.333496 39.5 1.78923 39.5 3.5835ZM10.8255 20.5918L15.1047 10.0835H12.2271L9.56615 17.2606L9.275 15.8048L8.32708 10.9705C8.17136 10.3002 7.69063 10.1106 7.09479 10.0835H2.71406L2.66667 10.2934C3.73646 10.5642 4.69115 10.9569 5.52396 11.4512L7.94792 20.5918H10.8255ZM17.2172 20.6054L18.9234 10.0835H16.2016L14.5021 20.6054H17.2172ZM26.6896 17.1658C26.7031 15.9673 25.9719 15.0533 24.4078 14.3017C23.4531 13.821 22.8708 13.496 22.8708 13.0017C22.8844 12.5548 23.3651 12.0944 24.4349 12.0944C25.3219 12.0741 25.9719 12.284 26.4594 12.4939L26.7031 12.609L27.0755 10.334C26.5406 10.1241 25.6875 9.88714 24.638 9.88714C21.95 9.88714 20.0609 11.3226 20.0474 13.3673C20.0271 14.8772 21.4016 15.7168 22.4307 16.2246C23.4802 16.7392 23.8391 17.0778 23.8391 17.5314C23.8255 18.2356 22.9859 18.5606 22.2073 18.5606C21.124 18.5606 20.5417 18.3913 19.6547 17.9986L19.2958 17.8293L18.9167 20.1923C19.5531 20.4835 20.7313 20.7408 21.95 20.7543C24.8073 20.7611 26.6693 19.346 26.6896 17.1658ZM36.25 20.6054L34.0563 10.0835H31.9505C31.3005 10.0835 30.8063 10.2731 30.5287 10.9569L26.4865 20.6054H29.3438C29.3438 20.6054 29.8109 19.3054 29.9125 19.0278H33.4063C33.4875 19.4002 33.7313 20.6054 33.7313 20.6054H36.25Z" fill="#474747"/>
</svg>
